HIERARCHY
ROOT Hips
{
  OFFSET 24.6153 100.728 -162.986
  CHANNELS 6 Xposition Yposition Zposition Zrotation Xrotation Yrotation
  JOINT RightUpLeg
  {
    OFFSET -8.9458 -8.66707 0.101652
    CHANNELS 3 Zrotation Xrotation Yrotation
    JOINT RightLeg
    {
      OFFSET 0 -44.4227 1.3727
      CHANNELS 3 Zrotation Xrotation Yrotation
      JOINT RightFoot
      {
        OFFSET 0.253549 -42.0924 -1.46059
        CHANNELS 3 Zrotation Xrotation Yrotation
        JOINT RightToes
        {
          OFFSET 0.04 -4.41509 8.4991
          CHANNELS 3 Zrotation Xrotation Yrotation
          End Site
          {
            OFFSET -0.08 -0.137448 9.77979
          }
        }
      }
    }
  }
  JOINT Spine
  {
    OFFSET 0 11.8905 0
    CHANNELS 3 Zrotation Xrotation Yrotation
    JOINT Spine1
    {
      OFFSET 0 25.6574 0.127663
      CHANNELS 3 Zrotation Xrotation Yrotation
      JOINT HEad
      {
        OFFSET 0 8.73416 0.011341
        CHANNELS 3 Zrotation Xrotation Yrotation
        End Site
        {
          OFFSET -0.29 12.7742 2.51395
        }
      }
      JOINT LeftShoulder1
      {
        OFFSET 8.99 -0.362252 -0.22
        CHANNELS 3 Zrotation Xrotation Yrotation
        JOINT LeftArm
        {
          OFFSET 10.2827 -0.00338 0.322123
          CHANNELS 3 Zrotation Xrotation Yrotation
          JOINT LeftForeArm
          {
            OFFSET 32.7669 0.099144 -1.42434
            CHANNELS 3 Zrotation Xrotation Yrotation
            JOINT LeftHand
            {
              OFFSET 27.5643 0.085362 1.02216
              CHANNELS 3 Zrotation Xrotation Yrotation
              End Site
              {
                OFFSET 16.7443 -0.6 1.50291
              }
            }
          }
        }
      }
      JOINT RightShoulder
      {
        OFFSET -8.99 -0.362252 -0.22
        CHANNELS 3 Zrotation Xrotation Yrotation
        JOINT RightArm
        {
          OFFSET -10.2827 -0.00338 0.322123
          CHANNELS 3 Zrotation Xrotation Yrotation
          JOINT RightForeArm
          {
            OFFSET -32.8971 0.099144 -1.42434
            CHANNELS 3 Zrotation Xrotation Yrotation
            JOINT RightHand
            {
              OFFSET -27.4921 0.085362 1.02216
              CHANNELS 3 Zrotation Xrotation Yrotation
              End Site
              {
                OFFSET -16.6312 -0.6 1.50291
              }
            }
          }
        }
      }
    }
  }
  JOINT LeftUpLeg
  {
    OFFSET 8.9458 -8.66707 0.101652
    CHANNELS 3 Zrotation Xrotation Yrotation
    JOINT LeftLeg
    {
      OFFSET 0 -44.4227 1.3727
      CHANNELS 3 Zrotation Xrotation Yrotation
      JOINT LeftFoot
      {
        OFFSET -0.253549 -42.0924 -1.46059
        CHANNELS 3 Zrotation Xrotation Yrotation
        JOINT LeftToes
        {
          OFFSET -0.04 -4.41509 8.4991
          CHANNELS 3 Zrotation Xrotation Yrotation
          End Site
          {
            OFFSET 0.08 -0.047448 9.77979
          }
        }
      }
    }
  }
}
MOTION
Frames:	14
Frame Time:	0.0166667
24.6153 100.728 -162.986 2.18806 -0.175797 5.98879 -0.14217 6.20429 -0.448783 4.07349 27.0812 -25.7888 16.6541 -5.11723 0.107426 0.0462048 0.000533964 0.662642 0.533985 2.75785 -1.4074 -5.9439 2.58753 -0.163698 3.97505 4.06749 9.61443 7.95139e-016 2.38542e-015 -0 -79.8821 -46.2445 -0.840693 -21.4707 14.4983 -13.3594 0.368473 9.90896 -0.00117927 -9.31759 0.0435616 11.0775 92.6928 -16.7551 11.0952 22.1229 16.2986 20.0749 -0.369625 9.91382 0.00119886 -6.95137 -29.4756 0.467288 1.88191 32.0767 1.57567 1.58492 7.55802 -0.103363 4.30748e-011 -2.31608e-011 1.04014e-010 
24.9533 100.971 -161.446 2.62977 -0.731356 5.92725 -1.48365 5.79938 -0.112163 5.17184 29.956 -27.0076 17.227 -2.00615 -0.34666 -2.83307 -2.33412 0.679234 -0.0406685 2.68029 -1.35375 -6.09412 3.73465 -0.0626497 4.06569 3.57599 9.76133 -1.3418e-015 -7.95139e-016 -7.95139e-016 -80.8093 -46.011 -1.75429 -21.3551 14.5659 -13.7349 0.368473 9.90896 -0.00117927 -9.68783 -0.00237503 10.5193 92.9703 -16.982 10.8372 22.0099 16.0013 18.7705 -0.369625 9.91382 0.00119886 -7.62067 -27.8138 0.795879 2.41269 32.183 1.05357 1.67221 6.71167 -0.0971539 -0.334644 -1.31743 0.417434 
25.2714 101.158 -159.947 3.08313 -1.20278 5.87031 -2.80167 5.07339 0.0756073 6.25927 33.1023 -28.1985 17.8515 1.26628 -0.844342 -5.05663 -4.56235 0.652848 -0.668642 2.61686 -1.28237 -6.26494 4.80365 0.0330571 4.15404 3.02951 9.86184 1.59028e-015 -7.95139e-016 -0 -81.7107 -45.6553 -2.67618 -21.2626 14.6473 -14.1707 0.368473 9.90896 -0.00117927 -10.01 -0.0416315 9.98788 93.1652 -17.2018 10.5423 21.923 15.7256 17.5909 -0.369625 9.91382 0.00119886 -8.31383 -26.3258 0.867098 2.77866 32.4196 0.818976 1.73079 5.75865 -0.0856598 -0.61947 -2.43884 0.791857 
25.5357 101.178 -158.559 3.59091 -1.44165 5.86362 -4.10166 3.47595 -0.272853 6.98548 37.1691 -29.0882 18.6739 5.12142 -1.50561 -6.09541 -7.22039 0.488304 -1.49006 2.59553 -1.15138 -6.49225 5.66448 0.114586 4.2388 2.30976 9.78412 -8.94531e-016 -1.59028e-015 -0 -82.5543 -44.9318 -3.62959 -21.2325 14.7624 -14.7524 0.368473 9.90896 -0.00117927 -10.1771 -0.0595607 9.51052 93.1037 -17.4231 10.1186 21.952 15.5335 16.7107 -0.369625 9.91382 0.00119886 -9.0376 -25.3418 0.100366 2.59168 33.0752 1.51875 1.71801 4.49355 -0.0583659 -0.830966 -3.00751 1.07495 
25.7679 101.149 -157.222 4.07828 -1.556 5.78533 -5.3508 1.37492 -0.584711 7.77673 41.5649 -30.0573 19.3522 8.93616 -2.17563 -4.94858 -8.2741 0.290584 -2.29859 2.58899 -1.01545 -6.73035 6.39489 0.186114 4.29546 1.54848 9.73853 -1.98785e-016 0 -0 -83.3189 -44.1166 -4.57029 -21.2384 14.9049 -15.4647 0.368473 9.90896 -0.00117927 -10.3132 -0.0724255 9.11278 92.9842 -17.5906 9.69594 22.0249 15.4018 16.0805 -0.369625 9.91382 0.00119886 -9.67446 -24.5596 -0.707554 2.29245 33.8068 2.39761 1.64888 3.10579 -0.025756 -0.952417 -3.31056 1.23628 
25.9767 101.147 -155.901 4.50417 -1.60088 5.47786 -6.44857 -1.09389 -0.261714 9.15902 45.9345 -31.1887 19.4723 12.5171 -2.7779 0.533084 -4.57634 0.229297 -2.92054 2.58801 -0.923773 -6.98019 7.03931 0.251669 4.324 0.85168 9.95228 -1.49089e-015 -1.59028e-015 -7.95139e-016 -84.0055 -43.4747 -5.47735 -21.2687 15.083 -16.3727 0.368473 9.90896 -0.00117927 -10.5775 -0.0993756 8.86178 93.0496 -17.619 9.4091 22.0693 15.3266 15.7352 -0.369625 9.91382 0.00119886 -10.1925 -23.8079 -0.783264 2.39986 34.3896 2.72555 1.49047 1.63601 0.00696535 -0.823885 -3.3859 1.06031 
26.1669 101.184 -154.585 4.80704 -1.58705 5.0949 -7.34185 -3.78485 0.221173 10.7176 50.0825 -33.0266 19.1659 15.0048 -3.1615 7.57173 -0.00184076 0.0314851 -3.39788 2.56635 -0.850996 -7.13973 7.56772 0.302824 4.28597 0.184435 10.2384 4.96962e-016 1.59028e-015 1.59028e-015 -84.6047 -42.795 -6.36536 -21.3141 15.2691 -17.3217 0.368473 9.90896 -0.00117927 -10.7598 -0.117395 8.66015 93.0039 -17.6079 9.15429 22.163 15.3028 15.6012 -0.369625 9.91382 0.00119886 -10.5175 -23.0599 -0.712441 2.447 34.7962 2.98833 1.3406 0.325049 0.0349376 -0.82826 -3.62439 1.05474 
26.3422 101.324 -153.241 4.86386 -1.53167 4.74181 -7.96926 -6.53268 0.572466 12.3479 53.642 -36.7209 18.3306 15.1496 -3.0455 14.5985 2.09651 -0.703984 -3.67735 2.4726 -0.791552 -7.06903 7.92782 0.327696 4.10248 -0.475852 10.4765 3.97569e-016 0 -2.38542e-015 -85.012 -41.8967 -7.15609 -21.3951 15.4535 -18.2078 0.368473 9.90896 -0.00117927 -10.6371 -0.102718 8.47928 92.5355 -17.662 8.84264 22.3804 15.3266 15.6304 -0.369625 9.91382 0.00119886 -10.4448 -22.2111 -0.896783 1.97461 34.8517 3.51389 1.31585 -0.436082 0.0480361 -1.52346 -4.71616 1.98989 
26.5141 101.495 -151.902 4.81912 -1.47077 4.4062 -8.46299 -9.25906 0.847725 14.3459 56.3892 -40.8817 17.1407 13.9402 -2.6707 20.1868 3.29921 -1.43883 -3.87025 2.373 -0.735331 -6.88229 8.23088 0.340491 3.86982 -1.06429 10.6948 1.59028e-015 1.59028e-015 7.95139e-016 -85.4654 -40.9556 -8.07736 -21.4267 15.604 -18.9403 0.368473 9.90896 -0.00117927 -10.407 -0.0766227 8.17993 91.9261 -17.6803 8.56185 22.6489 15.3825 15.7834 -0.369625 9.91382 0.00119886 -10.2407 -21.3148 -1.07652 1.44513 34.7584 4.06301 1.32264 -1.05734 0.0568067 -2.14135 -5.79704 2.8698 
26.7059 101.647 -150.597 4.7781 -1.45999 4.09675 -8.97085 -11.8325 0.968406 16.1598 58.2779 -43.6455 15.6709 11.7979 -2.16962 21.5185 4.07007 -1.66704 -4.08049 2.33517 -0.659732 -6.61985 8.59999 0.352213 3.63905 -1.50193 10.8861 -4.96962e-016 1.59028e-015 -0 -86.2559 -40.1267 -9.40698 -21.3092 15.6793 -19.3598 0.368473 9.90896 -0.00117927 -10.2465 -0.0563963 7.5416 91.3859 -17.5376 8.40719 22.9321 15.4495 15.9831 -0.369625 9.91382 0.00119886 -10.1389 -20.3813 -1.12837 1.20331 34.6721 4.56945 1.28385 -1.89055 0.070076 -1.93819 -5.96054 2.58531 
26.8852 101.781 -149.302 4.73064 -1.45822 3.85546 -9.43332 -14.2492 1.03265 17.6087 59.3965 -45.3542 14.2971 9.16578 -1.64909 21.0364 4.41125 -1.68095 -4.27764 2.30343 -0.596615 -6.36576 8.94733 0.360944 3.46159 -1.85467 11.0342 -4.96962e-016 -1.59028e-015 3.97569e-016 -87.0923 -39.261 -10.8935 -21.1221 15.7069 -19.5662 0.368473 9.90896 -0.00117927 -9.99386 -0.0302141 6.77939 90.8224 -17.411 8.26862 23.1943 15.5394 16.2949 -0.369625 9.91382 0.00119886 -10.0694 -19.437 -1.05857 1.12249 34.5663 4.85447 1.27024 -2.71913 0.0828629 -1.68617 -6.0437 2.21739 
27.0212 101.876 -147.997 4.70976 -1.42855 3.75067 -9.81289 -16.4744 1.09463 18.6118 59.7204 -45.7625 13.461 6.62412 -1.26332 20.3037 4.41475 -1.591 -4.46169 2.24237 -0.58194 -6.26077 9.19959 0.368696 3.43883 -2.18414 11.1049 -1.2921e-015 3.18055e-015 3.97569e-016 -87.7436 -38.2423 -12.4012 -20.9101 15.6853 -19.5462 0.368473 9.90896 -0.00117927 -9.46497 0.0143526 6.01534 90.1657 -17.4494 8.05965 23.3939 15.6583 16.7631 -0.369625 9.91382 0.00119886 -10.0568 -18.5189 -0.786799 1.22634 34.4647 4.62061 1.32137 -3.4247 0.0919112 -1.99038 -6.68531 2.64072 
27.1331 101.947 -146.699 4.69314 -1.41386 3.7121 -10.1299 -18.4683 1.21468 19.0864 59.276 -45.4764 12.8709 4.19317 -0.948883 19.2335 4.27235 -1.44185 -4.64498 2.15887 -0.58083 -6.17521 9.4363 0.374658 3.47395 -2.42391 11.1468 8.94531e-016 1.59028e-015 -3.97569e-016 -88.3217 -37.1574 -13.8699 -20.6677 15.6518 -19.4834 0.368473 9.90896 -0.00117927 -8.90298 0.0581785 5.30816 89.552 -17.6114 7.80257 23.5079 15.8002 17.3737 -0.369625 9.91382 0.00119886 -10.0625 -17.603 -0.452149 1.39629 34.3728 4.16475 1.45289 -4.06459 0.100811 -2.51105 -7.56904 3.37724 
27.2327 102.007 -145.431 4.67291 -1.46419 3.69332 -10.386 -20.1653 1.49221 19.1321 58.013 -45.2674 12.3567 2.08359 -0.695482 18.1854 4.32015 -1.3184 -4.83887 2.03811 -0.565249 -6.01284 9.75217 0.38081 3.48983 -2.47054 11.1967 -1.10348e-032 1.59028e-015 3.97569e-016 -88.8991 -36.0368 -15.1969 -20.3955 15.6485 -19.5867 0.368473 9.90896 -0.00117927 -8.53494 0.0823042 4.80617 89.1324 -17.9636 7.46173 23.4574 15.9698 18.189 -0.369625 9.91382 0.00119886 -10.0486 -16.6652 -0.174817 1.5143 34.2938 3.61283 1.74371 -4.60766 0.111579 -3.29231 -8.73821 4.47919 
